<svg width="423" height="106" viewBox="0 0 423 106" fill="none" xmlns="http://www.w3.org/2000/svg">
<path d="M21.376 105.856C19.4987 105.856 17.3227 105.643 14.848 105.216C12.4587 104.875 10.112 104.235 7.808 103.296C5.58934 102.357 3.712 101.035 2.176 99.328C0.725336 97.536 2.98023e-06 95.3173 2.98023e-06 92.672C2.98023e-06 89.5147 1.408 86.656 4.224 84.096C7.04 81.4507 11.008 80.128 16.128 80.128C19.8827 80.128 23.3813 80.768 26.624 82.048C29.8667 83.2427 33.024 84.736 36.096 86.528C39.2533 88.2347 42.496 89.9413 45.824 91.648C50.0907 87.552 53.9733 82.4747 57.472 76.416C61.056 70.3573 64.5973 63.872 68.096 56.96C71.68 49.9627 75.52 42.9653 79.616 35.968C83.7973 28.9707 88.6187 22.4 94.08 16.256L101.504 7.936C98.3467 7.424 95.0613 7.04 91.648 6.784C88.2347 6.44267 84.6933 6.272 81.024 6.272C75.9893 6.272 70.4853 6.69867 64.512 7.552C58.624 8.40533 52.736 9.728 46.848 11.52C41.0453 13.312 35.712 15.5733 30.848 18.304C26.0693 21.0347 22.2293 24.2773 19.328 28.032C16.4267 31.7867 14.976 36.096 14.976 40.96C14.976 44.288 15.7013 46.9333 17.152 48.896C18.688 50.8587 20.5653 52.3093 22.784 53.248C25.088 54.1013 27.392 54.528 29.696 54.528C33.536 54.528 36.7787 53.6747 39.424 51.968C42.0693 50.176 44.032 48.128 45.312 45.824C46.6773 43.52 47.36 41.472 47.36 39.68C47.36 39.0827 47.7867 38.784 48.64 38.784C49.4933 38.784 49.92 39.4667 49.92 40.832C49.92 44.3307 48.8533 47.36 46.72 49.92C44.5867 52.48 41.8987 54.4427 38.656 55.808C35.4987 57.1733 32.2987 57.856 29.056 57.856C26.0693 57.856 22.9973 57.1307 19.84 55.68C16.768 54.2293 14.208 52.0533 12.16 49.152C10.112 46.2507 9.088 42.6667 9.088 38.4C9.088 33.28 10.5387 28.7573 13.44 24.832C16.3413 20.8213 20.224 17.408 25.088 14.592C29.952 11.776 35.3707 9.472 41.344 7.68C47.3173 5.80266 53.3333 4.43733 59.392 3.584C65.536 2.73066 71.296 2.304 76.672 2.304C81.6213 2.304 86.4427 2.56 91.136 3.07199C95.9147 3.49866 100.395 4.18133 104.576 5.12C105.771 4.096 106.965 3.2 108.16 2.432C109.44 1.664 110.592 1.06666 111.616 0.639996C112.555 0.213329 113.323 -3.8147e-06 113.92 -3.8147e-06C114.603 -3.8147e-06 114.944 0.255995 114.944 0.767994C114.944 1.024 114.475 1.49333 113.536 2.176C112.427 3.02933 111.445 3.84 110.592 4.608C109.824 5.29067 109.355 5.80267 109.184 6.144C117.888 8.36266 124.928 11.4347 130.304 15.36C135.765 19.2 138.496 23.7653 138.496 29.056C138.496 33.408 137.003 37.248 134.016 40.576C131.029 43.8187 127.104 46.3787 122.24 48.256C117.461 50.1333 112.341 51.2 106.88 51.456C114.56 53.9307 120.661 57.1307 125.184 61.056C129.792 64.9813 132.096 69.9733 132.096 76.032C132.096 80.5547 130.773 84.6507 128.128 88.32C125.568 91.9893 122.112 95.1467 117.76 97.792C113.493 100.352 108.8 102.315 103.68 103.68C98.56 105.131 93.4827 105.856 88.448 105.856C80.512 105.856 73.472 105.045 67.328 103.424C61.2693 101.803 54.9547 99.4987 48.384 96.512C40.1067 102.741 31.104 105.856 21.376 105.856ZM86.656 102.144C91.9467 102.144 96.768 101.333 101.12 99.712C105.472 98.0907 109.227 95.9573 112.384 93.312C115.627 90.6667 118.101 87.7227 119.808 84.48C121.6 81.2373 122.496 78.0373 122.496 74.88C122.496 71.8933 121.6 69.0347 119.808 66.304C118.016 63.488 115.2 61.1413 111.36 59.264C106.411 56.7893 102.059 55.0827 98.304 54.144C94.5493 53.12 91.5627 52.1813 89.344 51.328C88.4907 50.9013 87.936 50.6027 87.68 50.432C87.424 50.2613 87.296 50.0907 87.296 49.92C87.296 49.0667 87.7227 48.384 88.576 47.872C89.4293 47.36 90.4107 47.104 91.52 47.104C93.2267 47.104 95.0613 47.232 97.024 47.488C98.9867 47.744 101.077 47.872 103.296 47.872C108.843 47.872 113.621 46.7627 117.632 44.544C121.643 42.3253 124.715 39.552 126.848 36.224C129.067 32.896 130.176 29.6107 130.176 26.368C130.176 22.6987 128.555 19.4987 125.312 16.768C122.069 13.952 116.181 11.4347 107.648 9.216C103.381 15.104 99.1147 21.7173 94.848 29.056C90.5813 36.3093 86.3147 43.6907 82.048 51.2C77.7813 58.624 73.472 65.664 69.12 72.32C64.768 78.976 60.416 84.6933 56.064 89.472C55.04 90.5813 54.2293 91.4347 53.632 92.032C53.0347 92.544 52.224 93.2693 51.2 94.208C56.32 96.3413 61.952 98.2187 68.096 99.84C74.24 101.376 80.4267 102.144 86.656 102.144ZM18.816 101.888C23.5947 102.144 27.9467 101.589 31.872 100.224C35.8827 98.7733 39.5947 96.768 43.008 94.208C40.96 93.184 38.3573 91.8613 35.2 90.24C32.0427 88.6187 28.8427 87.2107 25.6 86.016C22.3573 84.736 19.5413 84.096 17.152 84.096C13.9947 84.096 11.6053 84.9493 9.984 86.656C8.36267 88.2773 7.552 90.1547 7.552 92.288C7.552 94.5067 8.49067 96.64 10.368 98.688C12.2453 100.651 15.0613 101.717 18.816 101.888ZM150.11 101.376C146.953 101.376 144.094 100.352 141.534 98.304C139.059 96.256 137.822 93.1413 137.822 88.96C137.822 85.4613 138.59 81.7493 140.126 77.824C141.747 73.8987 143.838 70.2293 146.398 66.816C149.043 63.3173 151.945 60.5013 155.102 58.368C158.345 56.1493 161.587 55.04 164.83 55.04C166.451 55.04 168.03 55.5093 169.566 56.448C171.102 57.3867 171.87 59.008 171.87 61.312C171.87 63.4453 171.059 65.792 169.438 68.352C167.817 70.912 165.513 73.3013 162.526 75.52C161.246 76.4587 159.625 77.3547 157.662 78.208C155.699 79.0613 153.737 79.7867 151.774 80.384C149.811 80.896 148.19 81.152 146.91 81.152C146.483 82.176 146.057 83.5413 145.63 85.248C145.289 86.9547 145.118 88.704 145.118 90.496C145.118 92.6293 145.545 94.5493 146.398 96.256C147.251 97.9627 148.83 98.816 151.134 98.816C153.95 98.816 156.553 98.0053 158.942 96.384C161.417 94.7627 163.593 92.7147 165.47 90.24C167.433 87.7653 169.097 85.248 170.462 82.688C171.827 80.128 172.894 77.952 173.662 76.16C174.686 76.16 175.198 76.544 175.198 77.312C174.089 79.7013 172.809 82.304 171.358 85.12C169.993 87.936 168.329 90.5813 166.366 93.056C164.489 95.4453 162.185 97.4507 159.454 99.072C156.809 100.608 153.694 101.376 150.11 101.376ZM147.806 78.848C149.001 78.848 151.006 78.4213 153.822 77.568C156.638 76.6293 159.198 75.1787 161.502 73.216C163.721 71.2533 165.427 69.12 166.622 66.816C167.817 64.4267 168.414 62.4213 168.414 60.8C168.414 58.9227 167.731 57.984 166.366 57.984C165.342 57.984 163.934 58.6667 162.142 60.032C160.35 61.3973 158.131 63.7013 155.486 66.944C153.865 68.992 152.329 71.2107 150.878 73.6C149.427 75.9893 148.403 77.7387 147.806 78.848ZM173.772 75.776C174.455 74.3253 175.351 72.0213 176.46 68.864C177.569 65.6213 178.721 62.0373 179.916 58.112C181.111 54.1867 182.007 50.4747 182.604 46.976C182.86 45.6107 183.329 44.6293 184.012 44.032C184.695 43.3493 185.42 43.008 186.188 43.008C187.297 43.008 188.321 43.5627 189.26 44.672C190.199 45.696 190.668 47.1893 190.668 49.152C190.668 51.5413 189.943 53.5893 188.492 55.296C187.127 57.0027 185.42 58.624 183.372 60.16C184.225 60.2453 185.121 60.3307 186.06 60.416C186.999 60.416 188.023 60.416 189.132 60.416C193.143 60.416 197.111 60.16 201.036 59.648C201.207 60.16 201.292 60.544 201.292 60.8C201.292 61.9093 200.951 63.3173 200.268 65.024C199.671 66.7307 199.031 68.2667 198.348 69.632C198.007 70.4 197.324 71.808 196.3 73.856C195.276 75.8187 194.167 78.08 192.972 80.64C191.777 83.1147 190.753 85.5893 189.9 88.064C189.132 90.4533 188.748 92.5013 188.748 94.208C188.748 96.4267 189.601 97.536 191.308 97.536C192.929 97.536 195.191 95.6587 198.092 91.904C200.993 88.064 203.895 82.816 206.796 76.16C207.82 76.16 208.332 76.544 208.332 77.312C207.393 79.616 206.199 82.1333 204.748 84.864C203.383 87.5947 201.847 90.1973 200.14 92.672C198.433 95.0613 196.599 97.0667 194.636 98.688C192.673 100.224 190.625 100.992 188.492 100.992C186.871 100.992 185.249 100.352 183.628 99.072C182.007 97.7067 181.196 95.5307 181.196 92.544C181.196 89.8987 181.708 87.3387 182.732 84.864C183.756 82.304 184.908 79.9147 186.188 77.696C187.468 75.4773 188.62 73.5147 189.644 71.808C190.668 70.1013 191.18 68.736 191.18 67.712C191.18 66.176 190.199 65.0667 188.236 64.384C186.359 63.7013 183.884 63.3173 180.812 63.232C179.276 67.1573 178.124 70.0587 177.356 71.936C176.588 73.8133 175.863 75.6053 175.18 77.312C173.815 77.312 173.345 76.8 173.772 75.776ZM194.353 101.504C197.51 95.4453 200.497 89.3867 203.313 83.328C206.129 77.184 208.988 71.3813 211.889 65.92C213.596 62.848 215.004 60.7147 216.113 59.52C217.308 58.24 218.886 57.6 220.849 57.6C221.532 57.6 222.257 57.728 223.025 57.984C223.793 58.1547 224.561 58.24 225.329 58.24C225.841 58.24 226.225 58.1973 226.481 58.112C225.286 58.7947 223.75 60.5013 221.873 63.232C219.996 65.8773 218.076 68.9493 216.113 72.448C214.15 75.9467 212.401 79.232 210.865 82.304C212.486 80.3413 214.15 78.3787 215.857 76.416C217.649 74.4533 219.612 72.576 221.745 70.784C223.622 69.1627 225.585 67.4133 227.633 65.536C229.766 63.5733 231.857 61.9093 233.905 60.544C235.953 59.1787 237.745 58.496 239.281 58.496C239.878 58.496 240.262 58.5387 240.433 58.624C242.054 59.3067 242.865 60.416 242.865 61.952C242.865 62.464 242.652 63.232 242.225 64.256C241.116 67.1573 239.665 70.144 237.873 73.216C236.166 76.2027 234.545 79.232 233.009 82.304C234.289 80.768 235.868 78.8907 237.745 76.672C239.708 74.4533 241.67 72.4907 243.633 70.784C245.51 69.0773 247.9 67.2853 250.801 65.408C253.702 63.5307 256.561 61.9093 259.377 60.544C262.193 59.1787 264.454 58.496 266.161 58.496C266.758 58.496 267.185 58.5387 267.441 58.624C267.441 58.624 266.972 59.4773 266.033 61.184C265.094 62.8053 263.9 64.9813 262.449 67.712C261.084 70.3573 259.676 73.216 258.225 76.288C256.774 79.2747 255.452 82.176 254.257 84.992C253.148 87.7227 252.422 90.0267 252.081 91.904C251.825 93.0133 251.697 94.0373 251.697 94.976C251.697 96.3413 251.953 97.2373 252.465 97.664C252.977 98.0907 253.532 98.304 254.129 98.304C255.836 98.304 257.5 97.5787 259.121 96.128C260.828 94.6773 262.492 92.8427 264.113 90.624C265.734 88.32 267.185 85.888 268.465 83.328C269.83 80.768 270.982 78.3787 271.921 76.16C272.945 76.16 273.457 76.544 273.457 77.312C272.518 79.616 271.324 82.176 269.873 84.992C268.508 87.7227 266.929 90.3253 265.137 92.8C263.345 95.2747 261.382 97.3227 259.249 98.944C257.116 100.565 254.812 101.376 252.337 101.376C250.545 101.376 248.838 100.779 247.217 99.584C245.681 98.3893 244.913 96.1707 244.913 92.928C244.913 89.4293 245.724 85.9307 247.345 82.432C249.052 78.9333 250.801 75.7333 252.593 72.832C253.446 71.3813 253.873 70.2293 253.873 69.376C253.873 68.352 253.361 67.84 252.337 67.84C251.484 67.84 250.289 68.2667 248.753 69.12C247.302 69.9733 245.468 71.4667 243.249 73.6C241.884 74.88 240.262 76.672 238.385 78.976C236.593 81.1947 234.758 83.6267 232.881 86.272C231.004 88.9173 229.382 91.52 228.017 94.08C226.652 96.64 225.756 98.9013 225.329 100.864C224.049 100.864 223.025 100.352 222.257 99.328C221.489 98.2187 221.105 96.9387 221.105 95.488C221.105 95.232 221.105 94.976 221.105 94.72C221.105 94.464 221.148 94.1653 221.233 93.824C221.66 91.1787 222.342 88.96 223.281 87.168C224.22 85.2907 225.286 83.1147 226.481 80.64C227.078 79.5307 227.761 78.2507 228.529 76.8C229.297 75.264 229.98 73.8133 230.577 72.448C231.174 70.9973 231.473 69.8027 231.473 68.864C231.473 68.0107 231.132 67.584 230.449 67.584C229.681 67.584 228.657 67.968 227.377 68.736C226.182 69.504 225.03 70.4 223.921 71.424C222.812 72.3627 221.958 73.088 221.361 73.6C219.228 75.648 216.625 78.592 213.553 82.432C210.566 86.272 207.281 91.7333 203.697 98.816C203.185 99.7547 202.588 100.352 201.905 100.608C201.222 100.779 200.156 100.864 198.705 100.864C197.766 100.864 196.998 100.864 196.401 100.864C195.718 100.949 195.036 101.163 194.353 101.504ZM281.11 101.376C277.953 101.376 275.094 100.352 272.534 98.304C270.059 96.256 268.822 93.1413 268.822 88.96C268.822 85.4613 269.59 81.7493 271.126 77.824C272.747 73.8987 274.838 70.2293 277.398 66.816C280.043 63.3173 282.945 60.5013 286.102 58.368C289.345 56.1493 292.587 55.04 295.83 55.04C297.451 55.04 299.03 55.5093 300.566 56.448C302.102 57.3867 302.87 59.008 302.87 61.312C302.87 63.4453 302.059 65.792 300.438 68.352C298.817 70.912 296.513 73.3013 293.526 75.52C292.246 76.4587 290.625 77.3547 288.662 78.208C286.699 79.0613 284.737 79.7867 282.774 80.384C280.811 80.896 279.19 81.152 277.91 81.152C277.483 82.176 277.057 83.5413 276.63 85.248C276.289 86.9547 276.118 88.704 276.118 90.496C276.118 92.6293 276.545 94.5493 277.398 96.256C278.251 97.9627 279.83 98.816 282.134 98.816C284.95 98.816 287.553 98.0053 289.942 96.384C292.417 94.7627 294.593 92.7147 296.47 90.24C298.433 87.7653 300.097 85.248 301.462 82.688C302.827 80.128 303.894 77.952 304.662 76.16C305.686 76.16 306.198 76.544 306.198 77.312C305.089 79.7013 303.809 82.304 302.358 85.12C300.993 87.936 299.329 90.5813 297.366 93.056C295.489 95.4453 293.185 97.4507 290.454 99.072C287.809 100.608 284.694 101.376 281.11 101.376ZM278.806 78.848C280.001 78.848 282.006 78.4213 284.822 77.568C287.638 76.6293 290.198 75.1787 292.502 73.216C294.721 71.2533 296.427 69.12 297.622 66.816C298.817 64.4267 299.414 62.4213 299.414 60.8C299.414 58.9227 298.731 57.984 297.366 57.984C296.342 57.984 294.934 58.6667 293.142 60.032C291.35 61.3973 289.131 63.7013 286.486 66.944C284.865 68.992 283.329 71.2107 281.878 73.6C280.427 75.9893 279.403 77.7387 278.806 78.848ZM310.66 101.248C307.503 101.248 305.156 100.309 303.62 98.432C302.169 96.4693 301.444 94.1653 301.444 91.52C301.444 88.7893 301.828 85.9733 302.596 83.072C303.364 80.1707 304.047 77.7387 304.644 75.776C306.009 70.9973 307.716 65.92 309.764 60.544C311.897 55.0827 314.201 49.7493 316.676 44.544C319.236 39.2533 321.753 34.5173 324.228 30.336C326.191 27.008 328.281 24.5333 330.5 22.912C332.804 21.2053 334.809 20.352 336.516 20.352C337.881 20.352 338.948 20.864 339.716 21.888C340.569 22.8267 340.996 24.2773 340.996 26.24C340.996 27.6053 340.74 29.2267 340.228 31.104C339.801 32.9813 339.033 35.1147 337.924 37.504C334.937 44.16 331.353 50.816 327.172 57.472C323.076 64.128 317.871 70.3573 311.556 76.16C310.532 78.5493 309.679 81.1093 308.996 83.84C308.313 86.5707 307.972 88.7893 307.972 90.496C307.972 95.7867 309.764 98.432 313.348 98.432C316.079 98.432 319.108 96.4693 322.436 92.544C325.764 88.5333 328.921 83.072 331.908 76.16C332.249 76.16 332.591 76.2453 332.932 76.416C333.273 76.5013 333.444 76.8 333.444 77.312C332.505 79.616 331.311 82.176 329.86 84.992C328.495 87.7227 326.873 90.3253 324.996 92.8C323.204 95.2747 321.113 97.3227 318.724 98.944C316.335 100.48 313.647 101.248 310.66 101.248ZM312.58 72.064C315.652 68.9067 318.639 65.28 321.54 61.184C324.441 57.0027 327.129 52.6933 329.604 48.256C332.164 43.7333 334.297 39.4667 336.004 35.456C336.601 34.176 337.071 32.768 337.412 31.232C337.839 29.696 338.052 28.416 338.052 27.392C338.052 26.1973 337.753 25.6 337.156 25.6C336.815 25.6 336.303 25.9413 335.62 26.624C334.937 27.2213 334.041 28.288 332.932 29.824C331.311 31.9573 329.519 34.8587 327.556 38.528C325.679 42.1973 323.759 46.1227 321.796 50.304C319.833 54.4853 318.041 58.5387 316.42 62.464C314.799 66.304 313.519 69.504 312.58 72.064ZM319.478 101.888C323.062 94.5493 326.774 86.8693 330.614 78.848C334.539 70.7413 338.55 62.592 342.646 54.4C346.742 46.208 350.795 38.4 354.806 30.976C356.257 28.416 357.579 26.4107 358.774 24.96C360.054 23.5093 361.718 22.784 363.766 22.784C364.534 22.784 365.43 22.912 366.454 23.168C367.478 23.424 368.459 23.4667 369.398 23.296C368.289 24.4907 366.753 26.5813 364.79 29.568C362.913 32.5547 360.779 36.1387 358.39 40.32C356.086 44.5013 353.611 49.024 350.966 53.888C348.406 58.6667 345.846 63.5307 343.286 68.48C340.811 73.344 338.507 77.9093 336.374 82.176C338.081 79.9573 339.83 77.8667 341.622 75.904C343.414 73.9413 345.163 72.2347 346.87 70.784C348.747 69.0773 351.094 67.2853 353.91 65.408C356.811 63.5307 359.67 61.9093 362.486 60.544C365.387 59.1787 367.691 58.496 369.398 58.496C369.995 58.496 370.422 58.5387 370.678 58.624C370.678 58.624 370.209 59.4773 369.27 61.184C368.331 62.8907 367.137 65.0667 365.686 67.712C364.321 70.3573 362.87 73.216 361.334 76.288C359.883 79.36 358.603 82.304 357.494 85.12C356.385 87.8507 355.659 90.112 355.318 91.904C355.062 93.2693 354.934 94.4213 354.934 95.36C354.934 96.7253 355.19 97.664 355.702 98.176C356.214 98.6027 356.769 98.816 357.366 98.816C358.817 98.816 360.353 98.0907 361.974 96.64C363.681 95.104 365.345 93.184 366.966 90.88C368.587 88.576 370.081 86.144 371.446 83.584C372.897 80.9387 374.049 78.464 374.902 76.16C375.926 76.16 376.438 76.544 376.438 77.312C375.499 79.616 374.305 82.176 372.854 84.992C371.489 87.7227 369.91 90.3253 368.118 92.8C366.326 95.2747 364.363 97.3227 362.23 98.944C360.097 100.565 357.835 101.376 355.446 101.376C353.739 101.376 351.99 100.779 350.198 99.584C348.406 98.3893 347.51 96.2133 347.51 93.056C347.51 92.1173 347.595 91.136 347.766 90.112C347.937 89.0027 348.235 87.7653 348.662 86.4C349.174 84.6933 350.027 82.816 351.222 80.768C352.417 78.6347 353.953 75.9893 355.83 72.832C356.683 71.3813 357.11 70.2293 357.11 69.376C357.11 68.352 356.598 67.84 355.574 67.84C354.721 67.84 353.569 68.2667 352.118 69.12C350.667 69.9733 348.833 71.4667 346.614 73.6C344.481 75.648 341.835 78.6347 338.678 82.56C335.521 86.4853 332.15 91.9893 328.566 99.072C327.969 100.181 327.286 100.779 326.518 100.864C325.835 100.864 324.897 100.907 323.702 100.992C322.934 101.077 322.166 101.12 321.398 101.12C320.63 101.205 319.99 101.461 319.478 101.888ZM402.67 101.248C400.707 101.248 398.958 100.693 397.422 99.584C395.971 98.4747 395.246 96.2133 395.246 92.8C395.246 91.3493 395.331 89.984 395.502 88.704C395.758 87.424 396.057 86.0587 396.398 84.608C395.63 85.888 394.563 87.4667 393.198 89.344C391.833 91.2213 390.297 93.056 388.59 94.848C386.969 96.64 385.262 98.1333 383.47 99.328C381.763 100.523 380.142 101.12 378.606 101.12C376.387 101.12 374.595 100.139 373.23 98.176C371.865 96.128 371.182 93.4827 371.182 90.24C371.182 86.7413 371.993 82.9867 373.614 78.976C375.235 74.9653 377.454 71.1253 380.27 67.456C383.086 63.7867 386.329 60.8 389.998 58.496C393.667 56.192 397.507 55.04 401.518 55.04C403.481 55.04 405.358 55.3813 407.15 56.064C408.942 56.6613 410.521 57.6853 411.886 59.136C412.483 59.7333 412.782 60.416 412.782 61.184C412.782 61.696 412.569 62.1227 412.142 62.464C411.715 62.8053 411.161 62.8907 410.478 62.72C409.539 59.7333 407.534 58.24 404.462 58.24C403.011 58.24 401.347 58.7093 399.47 59.648C397.166 60.8427 394.691 62.7627 392.046 65.408C389.486 67.968 387.054 70.912 384.75 74.24C382.531 77.4827 380.697 80.768 379.246 84.096C377.795 87.424 377.07 90.4533 377.07 93.184C377.07 96 378.137 97.408 380.27 97.408C382.147 97.408 384.067 96.512 386.03 94.72C388.078 92.928 389.998 90.7093 391.79 88.064C393.667 85.3333 395.374 82.6453 396.91 80C398.446 77.3547 399.641 75.2213 400.494 73.6C401.774 71.296 402.969 69.376 404.078 67.84C405.187 66.304 406.766 65.536 408.814 65.536C409.753 65.536 410.691 65.664 411.63 65.92C412.569 66.176 413.55 66.2187 414.574 66.048C412.014 68.608 409.753 71.6373 407.79 75.136C405.913 78.6347 404.462 82.0907 403.438 85.504C402.414 88.832 401.902 91.648 401.902 93.952C401.902 96.512 402.755 97.792 404.462 97.792C405.827 97.792 407.278 97.024 408.814 95.488C410.435 93.952 411.971 92.032 413.422 89.728C414.958 87.3387 416.366 84.9493 417.646 82.56C418.926 80.0853 419.95 77.952 420.718 76.16C421.145 76.16 421.486 76.2027 421.742 76.288C422.083 76.3733 422.254 76.7147 422.254 77.312C422.169 77.6533 421.998 78.0373 421.742 78.464C421.571 78.8053 421.273 79.4453 420.846 80.384C420.163 81.7493 419.225 83.584 418.03 85.888C416.835 88.192 415.427 90.5387 413.806 92.928C412.185 95.232 410.435 97.1947 408.558 98.816C406.681 100.437 404.718 101.248 402.67 101.248Z" fill="black"/>
</svg>
