<svg xmlns="http://www.w3.org/2000/svg" fill="none" viewBox="0 0 139 106">
  <path
    d="M21.376 105.856C19.4987 105.856 17.3227 105.643 14.848 105.216C12.4587 104.875 10.112 104.235 7.808 103.296C5.58933 102.357 3.712 101.035 2.176 99.328C0.725329 97.536 -4.64916e-06 95.3173 -4.64916e-06 92.672C-4.64916e-06 89.5147 1.408 86.656 4.224 84.096C7.04 81.4507 11.008 80.128 16.128 80.128C19.8827 80.128 23.3813 80.768 26.624 82.048C29.8667 83.2427 33.024 84.736 36.096 86.528C39.2533 88.2347 42.496 89.9413 45.824 91.648C50.0907 87.552 53.9733 82.4747 57.472 76.416C61.056 70.3573 64.5973 63.872 68.096 56.96C71.68 49.9627 75.52 42.9653 79.616 35.968C83.7973 28.9707 88.6187 22.4 94.08 16.256L101.504 7.936C98.3467 7.424 95.0613 7.04 91.648 6.784C88.2347 6.44267 84.6933 6.272 81.024 6.272C75.9893 6.272 70.4853 6.69867 64.512 7.552C58.624 8.40533 52.736 9.728 46.848 11.52C41.0453 13.312 35.712 15.5733 30.848 18.304C26.0693 21.0347 22.2293 24.2773 19.328 28.032C16.4267 31.7867 14.976 36.096 14.976 40.96C14.976 44.288 15.7013 46.9333 17.152 48.896C18.688 50.8587 20.5653 52.3093 22.784 53.248C25.088 54.1013 27.392 54.528 29.696 54.528C33.536 54.528 36.7787 53.6747 39.424 51.968C42.0693 50.176 44.032 48.128 45.312 45.824C46.6773 43.52 47.36 41.472 47.36 39.68C47.36 39.0827 47.7867 38.784 48.64 38.784C49.4933 38.784 49.92 39.4667 49.92 40.832C49.92 44.3307 48.8533 47.36 46.72 49.92C44.5867 52.48 41.8987 54.4427 38.656 55.808C35.4987 57.1733 32.2987 57.856 29.056 57.856C26.0693 57.856 22.9973 57.1307 19.84 55.68C16.768 54.2293 14.208 52.0533 12.16 49.152C10.112 46.2507 9.088 42.6667 9.088 38.4C9.088 33.28 10.5387 28.7573 13.44 24.832C16.3413 20.8213 20.224 17.408 25.088 14.592C29.952 11.776 35.3707 9.472 41.344 7.68C47.3173 5.80266 53.3333 4.43733 59.392 3.584C65.536 2.73066 71.296 2.304 76.672 2.304C81.6213 2.304 86.4427 2.56 91.136 3.07199C95.9147 3.49866 100.395 4.18133 104.576 5.12C105.771 4.096 106.965 3.2 108.16 2.432C109.44 1.664 110.592 1.06666 111.616 0.639996C112.555 0.213329 113.323 -3.8147e-06 113.92 -3.8147e-06C114.603 -3.8147e-06 114.944 0.255995 114.944 0.767994C114.944 1.024 114.475 1.49333 113.536 2.176C112.427 3.02933 111.445 3.84 110.592 4.608C109.824 5.29067 109.355 5.80267 109.184 6.144C117.888 8.36266 124.928 11.4347 130.304 15.36C135.765 19.2 138.496 23.7653 138.496 29.056C138.496 33.408 137.003 37.248 134.016 40.576C131.029 43.8187 127.104 46.3787 122.24 48.256C117.461 50.1333 112.341 51.2 106.88 51.456C114.56 53.9307 120.661 57.1307 125.184 61.056C129.792 64.9813 132.096 69.9733 132.096 76.032C132.096 80.5547 130.773 84.6507 128.128 88.32C125.568 91.9893 122.112 95.1467 117.76 97.792C113.493 100.352 108.8 102.315 103.68 103.68C98.56 105.131 93.4827 105.856 88.448 105.856C80.512 105.856 73.472 105.045 67.328 103.424C61.2693 101.803 54.9547 99.4987 48.384 96.512C40.1067 102.741 31.104 105.856 21.376 105.856ZM86.656 102.144C91.9467 102.144 96.768 101.333 101.12 99.712C105.472 98.0907 109.227 95.9573 112.384 93.312C115.627 90.6667 118.101 87.7227 119.808 84.48C121.6 81.2373 122.496 78.0373 122.496 74.88C122.496 71.8933 121.6 69.0347 119.808 66.304C118.016 63.488 115.2 61.1413 111.36 59.264C106.411 56.7893 102.059 55.0827 98.304 54.144C94.5493 53.12 91.5627 52.1813 89.344 51.328C88.4907 50.9013 87.936 50.6027 87.68 50.432C87.424 50.2613 87.296 50.0907 87.296 49.92C87.296 49.0667 87.7227 48.384 88.576 47.872C89.4293 47.36 90.4107 47.104 91.52 47.104C93.2267 47.104 95.0613 47.232 97.024 47.488C98.9867 47.744 101.077 47.872 103.296 47.872C108.843 47.872 113.621 46.7627 117.632 44.544C121.643 42.3253 124.715 39.552 126.848 36.224C129.067 32.896 130.176 29.6107 130.176 26.368C130.176 22.6987 128.555 19.4987 125.312 16.768C122.069 13.952 116.181 11.4347 107.648 9.216C103.381 15.104 99.1147 21.7173 94.848 29.056C90.5813 36.3093 86.3147 43.6907 82.048 51.2C77.7813 58.624 73.472 65.664 69.12 72.32C64.768 78.976 60.416 84.6933 56.064 89.472C55.04 90.5813 54.2293 91.4347 53.632 92.032C53.0347 92.544 52.224 93.2693 51.2 94.208C56.32 96.3413 61.952 98.2187 68.096 99.84C74.24 101.376 80.4267 102.144 86.656 102.144ZM18.816 101.888C23.5947 102.144 27.9467 101.589 31.872 100.224C35.8827 98.7733 39.5947 96.768 43.008 94.208C40.96 93.184 38.3573 91.8613 35.2 90.24C32.0427 88.6187 28.8427 87.2107 25.6 86.016C22.3573 84.736 19.5413 84.096 17.152 84.096C13.9947 84.096 11.6053 84.9493 9.984 86.656C8.36266 88.2773 7.552 90.1547 7.552 92.288C7.552 94.5067 8.49066 96.64 10.368 98.688C12.2453 100.651 15.0613 101.717 18.816 101.888Z"
  />
  <style>
    path {
      fill: #000;
    }
    @media (prefers-color-scheme: dark) {
      path {
        fill: #fff;
      }
    }
  </style>
</svg>
