<svg width="275" height="275" viewBox="0 0 275 275" fill="none" xmlns="http://www.w3.org/2000/svg">
<path d="M225 100L209.375 65.625L175 50L209.375 34.375L225 5.96046e-06L240.625 34.375L275 50L240.625 65.625L225 100ZM225 275L209.375 240.625L175 225L209.375 209.375L225 175L240.625 209.375L275 225L240.625 240.625L225 275ZM100 237.5L68.75 168.75L3.72529e-07 137.5L68.75 106.25L100 37.5L131.25 106.25L200 137.5L131.25 168.75L100 237.5ZM100 176.875L112.5 150L139.375 137.5L112.5 125L100 98.125L87.5 125L60.625 137.5L87.5 150L100 176.875Z" fill="#8D4E39"/>
</svg>
